<?xml version="1.0" encoding="UTF-8"?>
<svg id="Layer_1" xmlns="http://www.w3.org/2000/svg" version="1.1" viewBox="0 0 283.46 283.46">
  <!-- Generator: Adobe Illustrator 29.5.1, SVG Export Plug-In . SVG Version: 2.1.0 Build 141)  -->
  <defs>
    <style>
      .st0 {
        fill: #f58220;
      }
    </style>
  </defs>
  <path class="st0" d="M209.81,114.33c1.25-3.08,3.98-4.37,6.75-5.59,4.9-2.16,10.17-3.27,15.16-5.17,1.7-.65,3.4-1.29,4.69-2.67.58-.63.99-1.31,1.03-2.23-.77-.04-1.66.78-2.23-.29-.41-.78-.09-1.5.32-2.18.43-.72,1.03-1.25,1.9-.91.8.31,1.11,1.05,1.02,1.9-.33,3.34-2.27,5.54-5.13,7.02-3.5,1.8-7.33,2.69-11.04,3.91-3.19,1.05-6.39,2.04-9.33,3.72-1.19.68-2.25,1.47-3.15,2.49Z"/>
  <path class="st0" d="M244.65,147.6c-9.66.84-18.63-1.47-23.85-12.01-1.37-2.77-2.2-8.18-.87-9.87,1.85-2.33,6.57-3.99,9.01-2.89,4.34,1.96,7.89,6.21,11.99,9.69,3.18-8.21,1.38-16.19-5.6-19.52-6.77-3.23-12.95.81-16.72,10.66-3.93,10.24-5.58,20.16,3.72,29.97-5.25.49-8.99.99-12.75,1.17-6.34.3-13.83,3.38-15.55,3.49-11.03.74-14.52-3.09-14.38-12.13.19-12.16-.19-24.34-.05-36.5.08-6.59-1.55-13.48,2.66-19.59-6.72,6.16-12.89,12.48-12.66,22.53.25,10.95.23,21.91.39,32.86.06,4.15-.91,7.42-5.58,8.43-1.71.37-3.32,1.22-5.02,1.7-11.26,3.16-39.08,2.45-50.45.72-13.26-2.02-26.24-5.66-39.67-6.71-9.31-.73-18.51-.44-27.43,2.59-9.22,3.13-15.86,9.26-20.05,18.03-.42.88-1,1.79-.07,2.87,4.16,4.85,8.46,9.52,14.41,12.26,8.07,3.72,16.72,4.48,25.4,4.98,11.17.64,22.14-1.06,33.08-3.05,9.57-1.74,18.65-1.09,26.29,6.08-.71-2.21-2.27-3.85-3.72-5.52-4.79-5.53-9.91-10.61-17.44-12.28-5.97-1.33-11.88-.54-17.73.59-12.24,2.37-24.53,3.5-36.97,2.1-6.32-.71-12.61-1.63-18.36-4.63-1.54-.8-3.76-1.6-3.68-3.39.08-1.75,1.98-3,3.64-3.91.07-.04.14-.07.21-.11,6.86-3.84,14.36-5.01,22.07-5.31,11.93-.47,23.53,1.83,35.12,4.17,12.62,2.55,25.23,5.18,38.23,4.06,7.62-.66,31.35-2.46,38.07-6.26,3.41-1.93,6.42-4.39,9.63-7.51,0,1.88-.02,3.14,0,4.41.11,6.16,2.55,8.97,8.58,9.95,5.41.88,10.62-.25,15.67-1.87,6.32-2.03,4.46-2.14,10.89-2.99,16.53-.26,33.06-3.86,49.62-9.69,4.99-1.76,7.29-4.93,7.47-11.12-6.21,1.29-11.86,3.02-17.59,3.52Z"/>
  <polygon class="st0" points="72.33 135.5 64.25 127.42 57.19 134.49 50.12 127.42 42.05 135.5 50.12 143.57 57.19 136.5 64.25 143.57 72.33 135.5"/>
  <rect class="st0" x="139.7" y="175.76" width="11.41" height="11.41" transform="translate(-85.73 155.97) rotate(-45)"/>
</svg>